<svg width="25" height="32" viewBox="0 0 25 32" fill="none" xmlns="http://www.w3.org/2000/svg">
<path d="M16.95 8.38575C16.95 8.38575 19.0641 4.88236 18.0977 4.39914C17.1312 3.91591 15.6816 4.88236 15.6816 4.88236C15.6816 4.88236 16.648 1.49979 14.7151 1.49979C12.7822 1.49979 12.299 3.43269 12.299 3.43269C12.299 3.43269 11.5949 -0.576147 8.91642 0.533337C7.24253 1.22677 6.5003 2.94946 8.91642 7.78171" fill="#FCC436"/>
<path d="M8.90485 18.1084C9.65508 18.1084 10.2633 17.5003 10.2633 16.75C10.2633 15.9998 9.65508 15.3916 8.90485 15.3916C8.15463 15.3916 7.54645 15.9998 7.54645 16.75C7.54645 17.5003 8.15463 18.1084 8.90485 18.1084Z" fill="#FCC436"/>
<path d="M17.603 18.1084C18.3532 18.1084 18.9614 17.5003 18.9614 16.75C18.9614 15.9998 18.3532 15.3916 17.603 15.3916C16.8527 15.3916 16.2446 15.9998 16.2446 16.75C16.2446 17.5003 16.8527 18.1084 17.603 18.1084Z" fill="#FCC436"/>
<path d="M12.8717 18.291C12.8717 18.291 21.5697 17.8077 12.8717 26.989C12.8717 26.989 4.17361 18.291 12.8717 18.291Z" fill="#FCC436"/>
<path d="M12.8624 28.4388L12.9083 29.7962H12.9151C12.9185 29.7961 12.9227 29.7954 12.9278 29.7952C12.9382 29.7948 12.9526 29.7941 12.9698 29.7933C13.0041 29.7916 13.0517 29.7894 13.1114 29.7855C13.2313 29.7776 13.401 29.7642 13.6104 29.7425C14.0287 29.6991 14.613 29.6209 15.2881 29.4818C16.6201 29.2073 18.3956 28.6777 19.9581 27.6361C21.5475 26.5764 22.9558 24.9543 23.3741 22.556C23.7819 20.2171 23.2074 17.3598 21.3487 13.8636C21.3281 13.8119 21.3003 13.7409 21.2628 13.6546C21.1873 13.4811 21.0761 13.2417 20.9258 12.9583C20.6266 12.3941 20.164 11.639 19.5079 10.8792C18.1902 9.35354 16.0319 7.75142 12.8624 7.75129C9.6929 7.75129 7.53458 9.35359 6.21686 10.8792C5.56073 11.6389 5.09812 12.3941 4.79889 12.9583C4.64852 13.2419 4.53651 13.4811 4.461 13.6546C4.42334 13.7412 4.39464 13.8118 4.37408 13.8636C2.51559 17.3595 1.94186 20.2172 2.34967 22.556C2.76797 24.9543 4.17627 26.5764 5.76569 27.6361C7.32805 28.6776 9.10369 29.2073 10.4356 29.4818C11.1108 29.6209 11.695 29.6991 12.1133 29.7425C12.3228 29.7642 12.4924 29.7776 12.6124 29.7855C12.672 29.7894 12.7196 29.7916 12.754 29.7933C12.7712 29.7941 12.7855 29.7948 12.796 29.7952C12.801 29.7954 12.8052 29.7961 12.8087 29.7962H12.8155L12.8624 28.4388ZM12.8624 28.4388L12.8165 29.7962C12.8466 29.7972 12.8771 29.7972 12.9073 29.7962L12.8624 28.4388Z" stroke="#FCC436" stroke-width="2.71681" stroke-miterlimit="10" stroke-linecap="round" stroke-linejoin="round"/>
</svg>
