<svg width="30" height="30" viewBox="0 0 30 30" fill="none" xmlns="http://www.w3.org/2000/svg">
<g clip-path="url(#clip0_2906_2)">
<path d="M22.191 -0.232437C23.11 -0.29606 23.8063 -0.16286 23.8736 -0.149429C24.5504 -0.0135668 24.9899 0.645291 24.8541 1.32225C24.7181 1.99892 24.0596 2.43693 23.3824 2.30174V2.30077C23.3619 2.29716 22.9482 2.22522 22.4127 2.25487C21.8551 2.28577 21.2019 2.42582 20.7115 2.83104C20.2453 3.21646 19.949 3.8439 19.8589 4.74315C20.4412 5.21185 20.8897 5.70158 21.2779 6.29784H27.5855C28.2757 6.29796 28.8353 6.85771 28.8355 7.54784C28.8355 10.3473 26.4152 12.541 23.647 12.2783C24.1911 13.9011 24.3765 14.4316 25.8716 18.7617C26.0966 19.4141 25.7505 20.1252 25.0982 20.3506C24.4457 20.5758 23.7338 20.2299 23.5084 19.5771L23.1636 18.5791L19.8355 26.9668C19.0456 28.9564 17.1526 30.2427 15.0132 30.248L15.0142 30.249H15.0162C15.0124 30.2492 15.0068 30.25 15.0005 30.25C14.9944 30.25 14.9887 30.2492 14.9849 30.249H14.9859V30.248C12.8464 30.2423 10.954 28.9553 10.1646 26.9658L6.83551 18.5791L6.49176 19.5771C6.26653 20.2297 5.55459 20.5758 4.90192 20.3506C4.24943 20.1253 3.90335 19.4142 4.12848 18.7617C5.25479 15.4996 6.03147 13.2477 6.36676 12.2764C3.60092 12.5467 1.16461 10.3607 1.16461 7.54784C1.16482 6.85766 1.7244 6.29788 2.41461 6.29784H8.72516C9.12579 5.71533 9.60187 5.19384 10.1402 4.74803C10.0508 3.84628 9.75568 3.21714 9.28864 2.83104C8.7981 2.42573 8.14457 2.28562 7.58649 2.25487C7.03333 2.22442 6.60904 2.30368 6.60895 2.3037L6.60797 2.30272C5.93225 2.43536 5.27941 1.99636 5.1441 1.32225C5.00828 0.644815 5.45038 -0.0136443 6.12653 -0.149429C6.19471 -0.16308 6.89073 -0.296041 7.80914 -0.232437C8.72727 -0.168808 9.89131 0.0925404 10.8668 0.891586C11.6456 1.52957 12.1693 2.38775 12.4439 3.43944C14.1374 2.83604 15.9437 2.86673 17.5552 3.43944C17.8298 2.3876 18.3545 1.52963 19.1334 0.891586C20.1088 0.0925044 21.2728 -0.16883 22.191 -0.232437ZM14.9742 5.45799C12.9325 5.48461 10.8605 6.89791 9.90192 9.69725C9.70733 10.2647 9.98363 9.45967 8.08649 14.9541L12.4888 26.0439C12.7352 26.6649 13.1886 27.1503 13.7505 27.4424V23.0185L12.5103 21.5869C11.8097 20.777 12.3886 19.5186 13.4556 19.5185H16.5445C17.6154 19.5186 18.1881 20.7798 17.4898 21.5869L16.2505 23.0176V27.4424C16.8121 27.1502 17.2649 26.6646 17.5113 26.0439L21.9127 14.9531C21.6795 14.2772 20.3568 10.4501 20.0982 9.6953C19.1019 6.78601 17.0122 5.43163 14.9742 5.45799ZM22.6197 9.25877C23.6631 10.1529 25.2267 9.90031 25.9576 8.79784H22.4507C22.5059 8.94648 22.5629 9.09969 22.6197 9.25877ZM4.04254 8.79784C4.78658 9.92116 6.38602 10.1525 7.41949 9.22459C7.47186 9.07215 7.52111 8.93162 7.56696 8.79784H4.04254Z" fill="#FCC436" stroke="#FCC436" stroke-width="0.5"/>
<path d="M17.7548 15.9374C18.4854 15.9374 19.0777 15.3451 19.0777 14.6145C19.0777 13.8839 18.4854 13.2916 17.7548 13.2916C17.0242 13.2916 16.4319 13.8839 16.4319 14.6145C16.4319 15.3451 17.0242 15.9374 17.7548 15.9374Z" fill="#FCC436"/>
<path d="M12.2855 15.9374C13.0161 15.9374 13.6084 15.3451 13.6084 14.6145C13.6084 13.8839 13.0161 13.2916 12.2855 13.2916C11.5548 13.2916 10.9625 13.8839 10.9625 14.6145C10.9625 15.3451 11.5548 15.9374 12.2855 15.9374Z" fill="#FCC436"/>
</g>
<defs>
<clipPath id="clip0_2906_2">
<rect width="30" height="30" fill="white"/>
</clipPath>
</defs>
</svg>
