<svg width="23" height="21" viewBox="0 0 23 21" fill="none" xmlns="http://www.w3.org/2000/svg">
<path d="M15.0469 1.76953C16.0081 1.43193 17.0526 1.41053 18.0264 1.70996C18.9999 2.00936 19.8516 2.61349 20.457 3.43262C21.0624 4.25192 21.3893 5.24398 21.3896 6.2627L21.3857 6.50977C21.2922 9.07248 19.7423 11.9535 16.2754 15.0742C14.7794 16.4155 13.1612 17.6128 11.4443 18.6553C9.72788 17.6129 8.11 16.4153 6.61426 15.0742C3.03568 11.8529 1.50013 8.88674 1.5 6.2627L1.50391 6.07227C1.54225 5.12083 1.865 4.20078 2.43262 3.43262C3.03804 2.61338 3.89058 2.00937 4.86426 1.70996C5.83787 1.41069 6.88175 1.432 7.84277 1.76953C8.80384 2.10709 9.63146 2.74352 10.2041 3.58594L11.4453 5.41113L12.6855 3.58594C13.2581 2.74352 14.0859 2.10714 15.0469 1.76953Z" stroke="#FCC436" stroke-width="3"/>
</svg>
